<svg width="40" height="40" viewBox="0 0 40 40" fill="none" xmlns="http://www.w3.org/2000/svg">
<path d="M19.7077 0.292316C15.4455 0.292316 11.2981 1.67412 7.88756 4.23049C4.47705 6.78687 1.98721 10.38 0.791451 14.4711C-0.404304 18.5622 -0.241525 22.9306 1.25538 26.9214C2.75228 30.9121 5.50262 34.31 9.09393 36.6055C12.6852 38.9009 16.9239 39.9703 21.1744 39.6531C25.4248 39.3359 29.4578 37.6492 32.6686 34.8461C35.8794 32.043 38.095 28.2745 38.9829 24.1058C39.8709 19.9371 39.3835 15.5929 37.5937 11.7246L30.1317 15.1771C31.1748 17.4315 31.4589 19.9634 30.9414 22.3929C30.4238 24.8224 29.1326 27.0187 27.2614 28.6524C25.3901 30.286 23.0396 31.269 20.5625 31.4538C18.0853 31.6387 15.615 31.0155 13.522 29.6777C11.4289 28.3399 9.82604 26.3596 8.95364 24.0338C8.08124 21.708 7.98637 19.162 8.68326 16.7777C9.38015 14.3935 10.8312 12.2994 12.8189 10.8095C14.8066 9.31964 17.2236 8.51432 19.7077 8.51432V0.292316Z" fill="#FF5A1F"/>
</svg>
