<svg width="138" height="42" viewBox="0 0 138 42" fill="none" xmlns="http://www.w3.org/2000/svg">
<path d="M21 0C16.4583 0 12.0389 1.47241 8.40478 4.19641C4.77062 6.92042 2.11752 10.7492 0.84335 15.1085C-0.430816 19.4679 -0.257363 24.1228 1.3377 28.3752C2.93276 32.6276 5.86345 36.2483 9.69025 38.6943C13.5171 41.1403 18.0337 42.2798 22.5628 41.9418C27.092 41.6038 31.3895 39.8065 34.8108 36.8196C38.2322 33.8327 40.593 29.8171 41.5392 25.3751C42.4854 20.933 41.966 16.3039 40.0589 12.1819L32.1076 15.8608C33.219 18.2631 33.5217 20.9609 32.9703 23.5498C32.4188 26.1386 31.043 28.4789 29.049 30.2197C27.055 31.9605 24.5504 33.0079 21.9108 33.2049C19.2712 33.4019 16.6389 32.7378 14.4087 31.3123C12.1784 29.8868 10.4704 27.7766 9.54076 25.2983C8.61116 22.82 8.51007 20.1071 9.25266 17.5664C9.99524 15.0258 11.5415 12.7944 13.6595 11.2068C15.7775 9.61928 18.3531 8.76115 21 8.76115V0Z" fill="#FF5A1F"/>
<path d="M59.512 30V13.2H62.992V26.928H72.184V30H59.512ZM76.2383 16.008C75.7263 16.008 75.2863 15.824 74.9183 15.456C74.5503 15.088 74.3663 14.648 74.3663 14.136C74.3663 13.624 74.5503 13.184 74.9183 12.816C75.2863 12.448 75.7263 12.264 76.2383 12.264C76.7503 12.264 77.1903 12.448 77.5583 12.816C77.9263 13.184 78.1103 13.624 78.1103 14.136C78.1103 14.648 77.9263 15.088 77.5583 15.456C77.1903 15.824 76.7503 16.008 76.2383 16.008ZM77.8943 17.496V30H74.6063V17.496H77.8943ZM79.6497 28.512L81.2817 26.328C82.0177 26.808 82.7137 27.168 83.3697 27.408C84.0257 27.632 84.6817 27.744 85.3377 27.744C86.0737 27.744 86.6577 27.624 87.0897 27.384C87.5377 27.144 87.7617 26.824 87.7617 26.424C87.7617 26.104 87.6337 25.848 87.3777 25.656C87.1377 25.464 86.7457 25.328 86.2017 25.248L83.8017 24.888C82.5697 24.696 81.6257 24.296 80.9697 23.688C80.3297 23.08 80.0097 22.272 80.0097 21.264C80.0097 20.064 80.4817 19.104 81.4257 18.384C82.3697 17.664 83.6337 17.304 85.2177 17.304C86.1297 17.304 87.0177 17.44 87.8817 17.712C88.7457 17.968 89.5697 18.352 90.3537 18.864L88.7697 20.976C88.0817 20.576 87.4257 20.28 86.8017 20.088C86.1777 19.88 85.5457 19.776 84.9057 19.776C84.3137 19.776 83.8337 19.888 83.4657 20.112C83.1137 20.336 82.9377 20.632 82.9377 21C82.9377 21.336 83.0657 21.6 83.3217 21.792C83.5937 21.968 84.0337 22.096 84.6417 22.176L87.0417 22.536C88.2577 22.712 89.1937 23.112 89.8497 23.736C90.5217 24.36 90.8577 25.152 90.8577 26.112C90.8577 26.704 90.7137 27.256 90.4257 27.768C90.1537 28.264 89.7777 28.696 89.2977 29.064C88.8177 29.432 88.2417 29.72 87.5697 29.928C86.8977 30.136 86.1697 30.24 85.3857 30.24C84.2497 30.24 83.1857 30.096 82.1937 29.808C81.2017 29.504 80.3537 29.072 79.6497 28.512ZM94.2044 26.472V20.256H91.6364V17.496H94.2044V14.304L97.4924 13.56V17.496H101.044V20.256H97.4924V25.8C97.4924 26.392 97.6204 26.808 97.8764 27.048C98.1324 27.288 98.5804 27.408 99.2204 27.408C99.5244 27.408 99.8124 27.392 100.084 27.36C100.356 27.312 100.652 27.232 100.972 27.12V29.808C100.62 29.92 100.196 30.008 99.7004 30.072C99.2044 30.152 98.7804 30.192 98.4284 30.192C97.0364 30.192 95.9804 29.88 95.2604 29.256C94.5564 28.616 94.2044 27.688 94.2044 26.472ZM104.544 16.008C104.032 16.008 103.592 15.824 103.224 15.456C102.856 15.088 102.672 14.648 102.672 14.136C102.672 13.624 102.856 13.184 103.224 12.816C103.592 12.448 104.032 12.264 104.544 12.264C105.056 12.264 105.496 12.448 105.864 12.816C106.232 13.184 106.416 13.624 106.416 14.136C106.416 14.648 106.232 15.088 105.864 15.456C105.496 15.824 105.056 16.008 104.544 16.008ZM106.2 17.496V30H102.912V17.496H106.2ZM109.012 30V17.496H112.3V18.48C112.78 18.08 113.308 17.776 113.884 17.568C114.476 17.36 115.116 17.256 115.804 17.256C117.244 17.256 118.428 17.72 119.356 18.648C120.284 19.576 120.748 20.768 120.748 22.224V30H117.46V22.704C117.46 21.92 117.22 21.288 116.74 20.808C116.276 20.328 115.652 20.088 114.868 20.088C114.324 20.088 113.828 20.2 113.38 20.424C112.948 20.632 112.588 20.936 112.3 21.336V30H109.012ZM129.238 30.072C128.358 30.072 127.526 29.904 126.742 29.568C125.974 29.232 125.302 28.776 124.726 28.2C124.166 27.624 123.718 26.952 123.382 26.184C123.062 25.4 122.902 24.56 122.902 23.664C122.902 22.784 123.07 21.96 123.406 21.192C123.742 20.408 124.198 19.728 124.774 19.152C125.35 18.576 126.03 18.128 126.814 17.808C127.598 17.472 128.438 17.304 129.334 17.304C129.958 17.304 130.55 17.392 131.11 17.568C131.686 17.744 132.222 17.992 132.718 18.312V17.496H135.958V30C135.958 31.648 135.422 32.92 134.35 33.816C133.294 34.712 131.766 35.16 129.766 35.16C128.806 35.16 127.878 35.064 126.982 34.872C126.102 34.68 125.294 34.4 124.558 34.032L125.71 31.464C126.398 31.8 127.07 32.048 127.726 32.208C128.382 32.384 129.038 32.472 129.694 32.472C130.67 32.472 131.406 32.256 131.902 31.824C132.414 31.408 132.67 30.792 132.67 29.976V28.944C132.174 29.312 131.63 29.592 131.038 29.784C130.462 29.976 129.862 30.072 129.238 30.072ZM126.142 23.664C126.142 24.672 126.486 25.528 127.174 26.232C127.878 26.936 128.734 27.288 129.742 27.288C130.334 27.288 130.878 27.192 131.374 27C131.87 26.792 132.302 26.512 132.67 26.16V21.24C132.318 20.888 131.886 20.616 131.374 20.424C130.862 20.216 130.326 20.112 129.766 20.112C128.758 20.112 127.902 20.456 127.198 21.144C126.494 21.832 126.142 22.672 126.142 23.664Z" fill="#341E17"/>
</svg>
