<svg width="91" height="84" viewBox="0 0 91 84" fill="none" xmlns="http://www.w3.org/2000/svg">
<path d="M83.7495 46.9713C80.5172 46.5037 77.77 46.1764 75.0538 45.6949C70.4439 44.8971 65.9266 43.9041 61.9332 41.2087C57.8843 38.4701 56.008 34.6599 56.775 29.9368C57.2505 27.0376 58.5114 24.2748 59.5195 21.4933C59.9194 20.4078 60.6318 19.4172 61.4618 17.894C59.0262 18.731 57.1234 19.4183 55.1939 20.0253C50.4853 21.5287 45.8342 23.2253 41.0519 24.4037C34.5067 26.0515 30.1083 23.1892 28.6828 16.5496C28.1256 13.9457 28.2 11.1798 28.0152 8.47945C27.9645 7.6671 28.031 6.85691 28.0442 5.88627C24.4016 8.84445 20.9813 11.7082 17.4747 14.4156C9.28658 20.7281 3.17717 15.522 1.37758 8.56138C0.895911 6.69986 0.862692 4.68242 0.804734 2.73489C0.80997 1.43109 1.50194 0.275944 2.94145 0.29775C4.24526 0.302986 4.75019 1.40981 4.93423 2.62328C5.13268 3.81827 5.2509 5.03992 5.57689 6.18566C5.9603 7.52475 6.36221 8.87826 7.0007 10.1189C8.80328 13.6041 11.2087 14.4082 14.6036 12.4163C17.0026 11.0159 19.2066 9.25538 21.4003 7.54628C23.4417 5.95633 25.4194 4.25733 27.3972 2.55833C28.4262 1.6955 29.4921 0.861485 30.8942 1.38915C32.506 1.99103 32.5766 3.5026 32.6495 4.89696C32.7528 6.67178 32.5888 8.44638 32.7909 10.209C33.0172 12.4363 33.295 14.674 33.8607 16.8091C34.6376 19.7032 36.064 20.6957 39.04 20.3096C41.8845 19.9398 44.7743 19.3973 47.5286 18.5709C53.4199 16.7704 59.2209 14.7807 65.0363 12.7724C66.4145 12.3006 67.6177 12.1679 68.61 13.2978C69.5612 14.3659 69.2065 15.546 68.5618 16.6786C67.4085 18.693 66.1523 20.6867 65.1058 22.7546C64.1953 24.5717 63.2929 26.4547 62.7319 28.3955C61.22 33.5786 62.6815 36.7386 67.4236 39.2742C70.9859 41.1877 74.8058 42.3509 78.766 43.0288C81.6179 43.5269 84.4967 43.8378 87.3507 44.2187C88.8621 44.4153 90.4248 44.6223 90.8654 46.4221C91.2608 48.1273 90.1247 49.2039 88.962 50.2003C88.4619 50.6132 87.9022 50.95 87.3611 51.3012C86.2603 51.9892 85.1861 52.7574 84.0217 53.3363C75.391 57.6989 73.2417 65.1497 74.2233 73.9995C74.409 75.6305 75.1068 77.2146 75.6216 78.8047C75.8698 79.5925 76.3627 80.3333 76.5121 81.1334C76.633 81.7031 76.5602 82.5976 76.1939 82.877C75.7988 83.1933 74.9187 83.1021 74.3862 82.9844C73.2328 82.7099 72.1725 81.7054 71.6181 80.7384C70.5277 78.8188 69.5198 76.7553 69.0383 74.6264C67.9525 69.9161 68.3493 65.1722 69.5893 60.4907C70.6477 56.4999 73.1921 53.5778 76.5214 51.3268C78.7148 49.8851 80.9986 48.6326 83.7495 46.9713Z" fill="#FF5A1F"/>
</svg>
